<svg width="25px" height="27px" viewBox="0 0 25 27" version="1.1" xmlns="http://www.w3.org/2000/svg" xmlns:xlink="http://www.w3.org/1999/xlink">
    <!-- Generator: Sketch 47 (45396) - http://www.bohemiancoding.com/sketch -->
    <desc>Created with Sketch.</desc>
    <defs></defs>
    <g id="Page-1" stroke="none" stroke-width="1" fill="none" fill-rule="evenodd">
        <g id="config-prompt-03" transform="translate(-1075.000000, -487.000000)">
            <g id="mp3-file-format-symbol" transform="translate(1075.000000, 487.000000)">
                <path d="M22.488428,9.62743342 L21.8379843,9.62743342 L21.8379843,6.50903862 C21.8379843,6.489452 21.8349213,6.47001266 21.8323029,6.45013151 C21.8312654,6.32632842 21.7915452,6.20468525 21.7062257,6.10847031 L16.4837543,0.180403005 C16.482124,0.178881239 16.4805924,0.178341257 16.479555,0.17681949 C16.4484309,0.142260656 16.4121689,0.113396175 16.3736837,0.0886551913 C16.3623704,0.0809481785 16.3509088,0.0746156648 16.3390026,0.0680867942 C16.3058036,0.0501692168 16.2704802,0.035098816 16.2342182,0.0242500911 C16.2243376,0.0216974499 16.2154944,0.0176721311 16.2057125,0.0150213115 C16.1662393,0.00579253188 16.125284,0 16.0838346,0 L3.24861228,0 C2.66254103,0 2.1863921,0.473662204 2.1863921,1.05551712 L2.1863921,9.62713889 L1.53604716,9.62713889 C0.697623889,9.62713889 0.0177851852,10.3024107 0.0177851852,11.1356516 L0.0177851852,18.9806052 C0.0177851852,19.8134535 0.697623889,20.4894125 1.53604716,20.4894125 L2.1863921,20.4894125 L2.1863921,25.8597277 C2.1863921,26.4416317 2.66254103,26.9151957 3.24861228,26.9151957 L20.7757147,26.9151957 C21.3612919,26.9151957 21.8379349,26.4416317 21.8379349,25.8597277 L21.8379349,20.4894616 L22.4883786,20.4894616 C23.3265549,20.4894616 24.0064924,19.8137971 24.0064924,18.9808997 L24.0064924,11.1359462 C24.0065418,10.3027052 23.3266043,9.62743342 22.488428,9.62743342 Z M3.24861228,1.05576257 L15.5526998,1.05576257 L15.5526998,6.45587495 C15.5526998,6.74746512 15.7906755,6.98363352 16.0838346,6.98363352 L20.7757641,6.98363352 L20.7757641,9.62762978 L3.24861228,9.62762978 L3.24861228,1.05576257 Z M20.7757641,25.5739301 L3.24861228,25.5739301 L3.24861228,20.4894616 L20.7757147,20.4894616 L20.7757147,25.5739301 L20.7757641,25.5739301 Z" id="Shape" fill="#D0D5DB" fill-rule="nonzero"></path>
                <text id="MP3" font-family=".AppleSystemUIFont" font-size="9.408" font-weight="normal" fill="#FFFFFF">
                    <tspan x="3.5" y="20.2">MP3</tspan>
                </text>
            </g>
        </g>
    </g>
</svg>
